<svg xmlns="http://www.w3.org/2000/svg" viewBox="0 0 216 34.7" enable-background="new 0 0 216 34.7"><title>FBMArtboard 29</title><g><path fill="#235445" d="M5.3 12.6c1.1-.1 2.4-.4 3.3-1.1v-2c0-4.6 2.7-7.9 7.1-7.9 2.9 0 5 .9 5 1.7L20 6.7l-.4.1C19 5.2 18 4.3 16.5 4.3 14 4.3 13 6.6 13 9.5v1.8h5v2.5h-5V17c0 4.5 0 8.4.9 12.9l-.1.4c-.9-.2-2-.3-3.1-.3s-2.2.1-3.1.3l-.1-.4c.8-3.7 1-8.6 1-13.2v-2.8h-3l-.2-1.3zM29.6 30.8c-6.3 0-9.8-4.2-9.8-9.9s3.5-10.1 9.8-10.1c6.4 0 9.8 4.4 9.8 10.1.1 5.6-3.4 9.9-9.8 9.9zm0-16.9c-3.5 0-5 3.1-5 7 0 3.8 1.5 6.8 5 6.8s5-3.1 5-6.9c0-3.9-1.5-6.9-5-6.9zM52.6 30.8c-6.3 0-9.8-4.2-9.8-9.9s3.5-10.1 9.8-10.1c6.4 0 9.8 4.4 9.8 10.1.1 5.6-3.4 9.9-9.8 9.9zm0-16.9c-3.5 0-5 3.1-5 7 0 3.8 1.5 6.8 5 6.8s5-3.1 5-6.9c0-3.9-1.5-6.9-5-6.9zM65.9 20.8c0-6.2 3.5-10.1 8.6-10.1 2.6 0 4.9 1.1 6.2 3.1-.1-3.7-.4-8-1.1-10.2l.1-.4c1.6-.2 4.3-.7 5.8-1.5l.3.3c-.6 3.3-.9 11.1-.9 15 0 4.6.3 10.8.9 12.8l-.1.4c-.9-.2-1.7-.3-2.6-.3-1 0-1.6.1-2.5.3l-.1-.4c.2-.8.3-1.9.3-3.1-1.2 2.2-3.3 4-6.7 4-4.9.1-8.2-3.6-8.2-9.9zm14.8 0c0-4.1-1.6-6.8-4.9-6.8-3.1 0-5.1 2.5-5.1 6.7 0 4 1.7 6.8 5 6.8 2.8 0 5-2.1 5-6.7zM127.3 15.2c1.4-3.1 3.9-4.6 6.5-4.6 3.8 0 6 3.3 6.1 7.7.1 5.2.1 7.3 1.1 11.3l-.1.4c-.9-.2-1.9-.3-2.9-.3-1.1 0-2.1.1-3 .3l-.1-.4c.5-2.8.8-6.2.8-10 0-3.7-1.3-5.3-3.4-5.3-2.3 0-4.2 2-4.7 5.1.1 4.4.2 6.4 1.1 10.1l-.1.4c-.8-.2-1.9-.3-2.9-.3-1.1 0-2 .1-3 .3l-.1-.4c.5-2.8.9-6.2.9-10 0-3.7-1.3-5.3-3.4-5.3-2.3 0-4.3 2-4.7 5.3v1.1c0 3.6.2 7.2.8 8.9l-.1.4c-1-.2-1.9-.3-3-.3-1 0-2 .1-3 .3l-.1-.4c.6-1.5 1-5.6 1-8.6 0-2.9-.2-6.8-1.1-9l.1-.5c1.8-.2 3.9-.8 5.4-1.5l.3.3c-.5 1.3-.6 3.3-.6 4.4 1.3-2.8 3.8-4.2 6.3-4.2 3.1.2 5.1 2 5.9 4.8zM157.3 26.7c-1.4 2.1-3.5 4-7.4 4-4 0-5.8-2.3-5.8-5.2 0-4.4 4-5.5 7.2-6.1 3.1-.5 5.8-.8 5.8-1.7 0-2.3-1.6-3.7-4.7-3.7-2.1 0-4.6.5-6.1 1.9l-.4-.1-.6-3.1c0-.3.1-.5.6-.8 1.2-.6 4.1-1.3 6.7-1.3 5.5 0 8.6 2.8 8.6 8 0 7.5 0 8.3 1 11l-.1.4c-1.1-.2-1.8-.3-2.6-.3s-1.6.1-2.5.3l-.2-.3c.3-1 .5-2 .5-3zm-.2-4.8c0-.1 0-.1 0-.1v-1.2c-.5.3-1.9.6-5.1 1.3-2.4.5-3.5 1.6-3.5 3.3 0 1.6.9 2.7 3 2.7 2.6-.1 5-1.9 5.6-6zM166.3 29.6c.6-1.6 1-5.6 1-8.6 0-3.1-.2-6.9-1.1-9l.1-.4c1.6-.2 4-.8 5.6-1.5l.3.3c-.3 1.2-.6 2.9-.5 4.6v.8c1.8-3.1 3.7-5.2 6.5-5.2 1.6 0 2.6.7 2.5 1.1l-.6 4.5-.5.1c-.7-1.3-1.3-1.9-2.7-1.9-2.7 0-4.9 4.1-5.2 6.7 0 3.6.3 7 .9 8.6l-.1.4c-.9-.2-2-.3-3-.3s-2.1.1-3 .3l-.2-.5zM183.7 29.6c.6-1.6 1-5.6 1-8.6 0-3.1-.2-6.9-1.1-9l.1-.4c1.6-.2 4.6-.8 6.2-1.5l.3.3c-.7 2.5-1.1 7.3-1.1 10.5 0 3.6.3 7.1.9 8.7l-.1.4c-.9-.2-2-.3-3-.3s-2.1.1-3 .3l-.2-.4zm3.2-28.2c1.9 0 2.9.9 2.9 2.6 0 1.6-1.1 2.6-2.9 2.6-1.9 0-2.9-1-2.9-2.6 0-1.7 1-2.6 2.9-2.6zM206.6 26.7c-1.4 2.1-3.5 4-7.4 4-4 0-5.8-2.3-5.8-5.2 0-4.4 4-5.5 7.2-6.1 3.1-.5 5.8-.8 5.8-1.7 0-2.3-1.6-3.7-4.7-3.7-2.1 0-4.6.5-6.1 1.9l-.4-.1-.6-3.1c0-.3.1-.5.6-.8 1.2-.6 4.1-1.3 6.7-1.3 5.5 0 8.6 2.8 8.6 8 0 7.5 0 8.3 1 11l-.1.4c-1.1-.2-1.8-.3-2.6-.3s-1.6.1-2.5.3l-.2-.3c.4-1 .5-2 .5-3zm-.2-4.8c0-.1 0-.1 0-.1v-1.2c-.5.3-1.9.6-5.1 1.3-2.4.5-3.5 1.6-3.5 3.3 0 1.6.9 2.7 3 2.7 2.6-.1 5.1-1.9 5.6-6zM88.7 25.9c.3-1.4.5-4.1.5-6.5 0-2.6-.1-5.2-.5-6.7l.1-.2c.7-.1 2.1-.3 2.8-.7l.2.2c-.2 1.4-.4 4-.5 6.5.7-1.2 1.6-2.1 3.3-2.1 2.5 0 4 1.9 4 4.9 0 3.3-1.8 5.1-4.3 5.1-1.2 0-2-.4-2.7-1.3.1.3.1.6.2.8v.2c-.5-.1-1-.1-1.4-.1-.5 0-1 .1-1.5.1l-.2-.2zm2.6-4.8c0 .2 0 .5 0 .7 0 1.9.9 3 2.3 3 1.5 0 2.5-1.1 2.5-3.4 0-1.9-.7-3.4-2.4-3.4-1.5 0-2.4 1.3-2.4 3.1zM98.7 29.7l.4-1.7h.2c.2.6.8 1.1 1.3 1.1.6 0 1.3-.5 2.2-2.7l.1-.3h-.4l-2.4-6.1c-.7-1.9-1.2-2.6-1.6-3.3l.1-.2c.5.1 1.2.2 1.8.2.6 0 1.1-.1 1.6-.2v.2c-.2.2-.2.4-.2.7 0 .3.2.9.7 2.2l1.4 4.1 1.4-3.5c.7-1.7.7-2.1.7-2.6 0-.4-.1-.7-.3-.9v-.2c.4.1.9.1 1.4.1.5 0 1 0 1.4-.1l.1.2c-.5.5-1 1.3-2.1 4l-2.4 6c-1.2 3-2.4 3.8-3.7 3.8-.8 0-1.7-.5-1.7-.8z" enable-background="new"/></g></svg>